<?xml version="1.0" encoding="UTF-8"?>
<svg version="1.1" xmlns="http://www.w3.org/2000/svg" width="616" height="655">
<path d="M0 0 C203.28 0 406.56 0 616 0 C616 216.15 616 432.3 616 655 C412.72 655 209.44 655 0 655 C0 438.85 0 222.7 0 0 Z " fill="#1C3666" transform="translate(0,0)"/>
<path d="M0 0 C3.77175148 0.35770035 6.63631504 1.67872254 9.9296875 3.484375 C10.87827637 4.00088623 11.82686523 4.51739746 12.80419922 5.04956055 C14.32424561 5.89127808 14.32424561 5.89127808 15.875 6.75 C16.93348145 7.32983643 17.99196289 7.90967285 19.08251953 8.50708008 C28.30783879 13.57669605 37.47269714 18.75316692 46.625 23.953125 C51.35997851 26.6420838 56.11161304 29.29925798 60.875 31.9375 C92.81545896 49.64731443 92.81545896 49.64731443 104.1875 56.4375 C108.96043619 59.28443532 113.75019734 61.93649976 118.75 64.375 C128.37498196 69.18749098 137.65678608 74.66102062 147 80 C147 196.49 147 312.98 147 433 C137.1 433 127.2 433 117 433 C115.29268416 431.29268416 115.86908327 429.08448617 115.86412811 426.75001049 C115.85927037 425.60444909 115.85441262 424.4588877 115.84940767 423.27861232 C115.84911169 422.00413165 115.8488157 420.72965098 115.84851074 419.41654968 C115.84466431 418.06147679 115.84037749 416.70640509 115.83568525 415.35133487 C115.82400012 411.61019969 115.81855048 407.86907672 115.81405044 404.12792695 C115.80811868 400.09987297 115.79644672 396.07183539 115.78541565 392.04379272 C115.7670356 385.05822365 115.75220229 378.07265422 115.73963928 371.08707237 C115.72137578 360.98261769 115.69671013 350.87818638 115.67026538 340.77375016 C115.62743293 324.37594841 115.5883286 307.97814021 115.55224609 291.58032227 C115.55008329 290.59802475 115.54792049 289.61572723 115.54569215 288.60366312 C115.53036517 281.63160896 115.51516959 274.65955451 115.5 267.6875 C115.48267981 259.72859679 115.4652939 251.76969374 115.44775391 243.81079102 C115.44559504 242.83059381 115.44343617 241.8503966 115.44121188 240.84049644 C115.40512271 224.50949704 115.36516888 208.17850928 115.32245111 191.84752589 C115.29627042 181.76632609 115.27361729 171.68512986 115.25546753 161.60391233 C115.24281434 154.69747588 115.22669336 147.79105324 115.20781839 140.884631 C115.19704568 136.89637827 115.18793183 132.90813894 115.18312263 128.91987419 C115.17869799 125.27126774 115.16975809 121.62270171 115.15717942 117.97411451 C115.15165693 116.02362223 115.15104771 114.07311795 115.15059233 112.1226179 C115.14573458 110.96923326 115.14087684 109.81584862 115.13587189 108.62751293 C115.13269793 107.1314685 115.13269793 107.1314685 115.12945986 105.60520095 C115.01109737 103.22331924 114.7812336 101.24909919 114 99 C112.19823448 97.50962165 112.19823448 97.50962165 109.85546875 96.328125 C108.96529053 95.83691162 108.0751123 95.34569824 107.15795898 94.83959961 C106.17770752 94.31503174 105.19745605 93.79046387 104.1875 93.25 C102.07747408 92.09102804 99.96812876 90.9308163 97.859375 89.76953125 C96.74111328 89.15803223 95.62285156 88.5465332 94.47070312 87.91650391 C89.18037232 84.99521122 83.94824271 81.97485771 78.71173096 78.95852661 C67.01732873 72.22868356 55.22534963 65.6921348 43.35400391 59.27978516 C39.55411147 57.2139237 35.77600391 55.10913465 32 53 C29.82078307 54.76906412 29.82078307 54.76906412 29.75390434 56.99524117 C29.75574793 57.81932409 29.75759151 58.64340702 29.75949097 59.49246216 C29.75674164 60.43759674 29.75399231 61.38273132 29.75115967 62.35650635 C29.75835022 63.39659851 29.76554077 64.43669067 29.77294922 65.50830078 C29.77265717 66.60099274 29.77236511 67.69368469 29.77206421 68.81948853 C29.77346175 72.44484292 29.78904301 76.06999385 29.8046875 79.6953125 C29.80841612 82.20352059 29.8112638 84.71173012 29.81326294 87.21994019 C29.82012881 93.15562286 29.83590472 99.09123984 29.85596192 105.02688873 C29.88048987 112.44629818 29.8912474 119.86571665 29.90234375 127.28515625 C29.92381485 140.52347486 29.95758261 153.76173279 30 167 C30.52395859 167.26086899 31.04791718 167.52173798 31.5877533 167.79051208 C37.02283444 170.49702244 42.45652553 173.20630786 47.8894043 175.91723633 C49.91931944 176.92967378 51.94959237 177.94139418 53.98022461 178.95239258 C56.89270048 180.40259098 59.80389543 181.85533207 62.71484375 183.30859375 C63.6283812 183.76278183 64.54191864 184.21696991 65.48313904 184.68492126 C66.74433311 185.31546165 66.74433311 185.31546165 68.03100586 185.95874023 C68.77491074 186.32958237 69.51881561 186.7004245 70.28526306 187.08250427 C72 188 72 188 73 189 C73.11041217 191.90330837 73.15497385 194.78333146 73.15821838 197.68753052 C73.16315636 198.6107746 73.16809434 199.53401869 73.17318195 200.48523986 C73.18864411 203.60620617 73.19694239 206.72715174 73.20532227 209.84814453 C73.21489702 212.07742496 73.22490686 214.30670356 73.23532104 216.53598022 C73.26249541 222.62564766 73.28345617 228.71532287 73.30332303 234.80501795 C73.32522616 241.21327758 73.35262055 247.62151378 73.37937927 254.02975464 C73.42375857 264.84290548 73.46451727 275.65606393 73.50268555 286.46923828 C73.54159659 297.49073457 73.58300265 308.51221696 73.62768555 319.53369141 C73.63040982 320.2058117 73.63313409 320.87793199 73.63594092 321.57041956 C73.64691208 324.27551169 73.65789112 326.98060379 73.66888306 329.68569583 C73.71970477 342.20972823 73.76811391 354.73377013 73.81640625 367.2578125 C73.821223 368.4980173 73.82603976 369.73822209 73.83100247 371.01600885 C73.95879467 404.01082629 74.02802737 437.00492874 74 470 C88.9519554 469.96274654 103.90369294 469.90275879 118.85544395 469.81609726 C125.7986525 469.77637736 132.74174887 469.74394929 139.68505859 469.72900391 C146.38959009 469.71455162 153.09372367 469.67936017 159.79811478 469.63169098 C162.35203651 469.61688877 164.9060079 469.60895966 167.45997238 469.60811615 C171.04579212 469.6057414 174.63065461 469.57861816 178.21630859 469.54589844 C179.2650415 469.5509288 180.31377441 469.55595917 181.39428711 469.56114197 C190.45617534 469.43376492 198.79506072 467.13474354 205.5445509 460.81068325 C210.58056474 454.54552022 211.59033469 446.93213213 211.5300293 439.15991211 C211.53876068 438.23346893 211.54749207 437.30702576 211.55648804 436.35250854 C211.58065021 433.3272504 211.57746822 430.30268531 211.57421875 427.27734375 C211.58667437 425.16409655 211.60101149 423.05085968 211.61714172 420.93763733 C211.65502233 415.40282015 211.6703335 409.86818171 211.67993164 404.33325195 C211.69974599 395.44300242 211.75638218 386.55288795 211.80869484 377.66278267 C211.82407922 374.55552613 211.83123656 371.44833716 211.83683777 368.34104919 C211.84384872 366.45254481 211.85094922 364.56404076 211.8581543 362.67553711 C211.85762558 361.80652267 211.85709686 360.93750824 211.85655212 360.04216003 C211.88677623 354.11322377 211.88677623 354.11322377 213 353 C215.14558827 352.91224395 217.29404421 352.89304781 219.44140625 352.90234375 C220.74658203 352.90556641 222.05175781 352.90878906 223.39648438 352.91210938 C224.7851569 352.92046599 226.17382877 352.92893095 227.5625 352.9375 C228.95507656 352.94251334 230.34765481 352.94707653 231.74023438 352.95117188 C235.1601987 352.96300566 238.58007844 352.9794912 242 353 C242.09283563 366.77830216 242.16383411 380.55652943 242.20724869 394.3350811 C242.22808951 400.73359124 242.25634364 407.13188678 242.30175781 413.53027344 C242.34533977 419.70945459 242.36916346 425.8884298 242.37950897 432.06775284 C242.38687812 434.42078008 242.40126824 436.77379653 242.42292023 439.12673569 C242.45211756 442.43222833 242.45594908 445.73687884 242.45410156 449.04248047 C242.46848267 450.00705673 242.48286377 450.971633 242.49768066 451.96543884 C242.4240227 464.20986078 236.61798733 474.22757369 228.4375 483.0625 C215.42716472 495.47807709 199.89727384 500.19051515 182.3515625 500.09765625 C181.33903412 500.0962413 180.32650574 500.09482635 179.28329468 500.09336853 C176.06383249 500.08779143 172.84444101 500.07524312 169.625 500.0625 C167.43619892 500.05748204 165.24739675 500.05291965 163.05859375 500.04882812 C157.70570523 500.0378295 152.35285767 500.0211142 147 500 C147.02618408 500.78012451 147.05236816 501.56024902 147.0793457 502.36401367 C147.18464447 505.97162932 147.24874417 509.57892023 147.3125 513.1875 C147.35439453 514.41404297 147.39628906 515.64058594 147.43945312 516.90429688 C147.61033892 529.85743994 143.90065797 540.50348208 135 550 C134.40445312 550.63679687 133.80890625 551.27359375 133.1953125 551.9296875 C123.34236211 561.455569 109.636465 564.3640009 96.3527832 564.17602539 C95.43451752 564.17161438 94.51625183 564.16720337 93.57015991 564.16265869 C91.59281951 564.15287412 89.61549565 564.13905833 87.63820839 564.12156868 C83.42882819 564.08896661 79.21968854 564.09159988 75.01020336 564.09185696 C67.188699 564.09171359 59.36782735 564.07627419 51.54663086 564.00366211 C46.08935505 563.95434403 40.63353741 563.94868928 35.17610741 563.97179985 C33.10164664 563.97236829 31.02711449 563.95669851 28.95290565 563.92436409 C18.12803052 563.23225337 18.12803052 563.23225337 8.46322632 566.94503784 C6.8982872 569.26933723 5.95695152 571.37903895 5 574 C-1.06780168 582.87756272 -10.64585184 588.50831035 -21 591 C-24.44960684 591.43596714 -27.83781263 591.52516504 -31.3125 591.5 C-32.23385742 591.49427979 -33.15521484 591.48855957 -34.10449219 591.48266602 C-45.65124045 591.18088986 -54.65662644 586.97772771 -63 579 C-72.53546455 568.55017583 -76.49929 556.4829254 -76.24609375 542.52734375 C-75.38577897 530.19616524 -70.03282724 520.15218361 -61.0546875 511.75 C-51.16609581 503.32777742 -39.82600262 501.03892351 -27 502 C-14.98907014 503.15701618 -4.0254899 509.0366655 4 518 C8.03215926 523.43028344 10.92695662 528.56496252 13 535 C23.63193715 534.89207413 34.26381199 534.77935836 44.89563465 534.66066074 C49.83331547 534.60568231 54.77100242 534.55230487 59.70874023 534.50268555 C64.48095587 534.45466899 69.25310667 534.40231727 74.02524376 534.34705925 C75.83871517 534.32680323 77.65220423 534.30806453 79.46570778 534.29092598 C96.710633 535.02232212 96.710633 535.02232212 113 531 C114.92316545 527.25745501 115.29078404 523.99514008 115.4140625 519.82421875 C115.45273437 518.66728516 115.49140625 517.51035156 115.53125 516.31835938 C115.57765625 514.52108398 115.57765625 514.52108398 115.625 512.6875 C115.66367187 511.46998047 115.70234375 510.25246094 115.7421875 508.99804688 C115.83628002 505.99884772 115.92192209 502.99965177 116 500 C115.1127272 500.00222061 114.22545441 500.00444122 113.31129456 500.00672913 C104.96755343 500.02672961 96.62382031 500.04197289 88.28006077 500.05181217 C83.99000085 500.05704061 79.69996067 500.06413753 75.40991211 500.07543945 C71.273206 500.08626975 67.13651892 500.09227714 62.99979973 500.09487724 C61.41807696 500.09673124 59.83635529 500.10035136 58.25464058 500.10573006 C56.04677162 500.1129424 53.83898227 500.11399086 51.63110352 500.11352539 C50.37201675 500.115746 49.11292999 500.11796661 47.81568909 500.12025452 C45 500 45 500 44 499 C43.8894783 495.88351704 43.84502126 492.78872691 43.84178162 489.67140198 C43.83684364 488.67929323 43.83190566 487.68718448 43.82681805 486.66501182 C43.81135528 483.31126293 43.80305767 479.95753331 43.79467773 476.60375977 C43.78510354 474.20873341 43.77509374 471.81370876 43.76467896 469.41868591 C43.74034316 463.56065772 43.72062832 457.70262439 43.70292621 451.84457339 C43.68197362 444.98766936 43.65551081 438.1307899 43.62875474 431.27390646 C43.58098016 418.98933894 43.53778009 406.70475962 43.49731445 394.42016602 C43.45833282 382.58844951 43.4169229 370.7567455 43.37231445 358.92504883 C43.36959018 358.20230959 43.36686591 357.47957035 43.36405908 356.73492993 C43.35309002 353.82683105 43.342111 350.91873222 43.33111694 348.01063344 C43.28301241 335.27262284 43.23673959 322.53460544 43.19094053 309.79658636 C43.18605889 308.43930761 43.18116967 307.08202889 43.17627272 305.72475019 C43.05756627 272.81639364 42.96719971 239.90858971 43 207 C42.24577255 206.86749344 41.4915451 206.73498688 40.71446228 206.59846497 C37.0457899 205.78962267 33.93215716 204.11478812 30.62890625 202.38671875 C29.56343567 201.83822014 29.56343567 201.83822014 28.47644043 201.27864075 C26.1684376 200.08795877 23.86539749 198.8880223 21.5625 197.6875 C19.96751094 196.8617002 18.37237665 196.03618085 16.77709961 195.2109375 C7.27666003 190.28481055 -2.15708629 185.24946376 -11.52246094 180.07055664 C-18.27340354 176.35100925 -25.12258047 172.8604158 -32.04467773 169.47070312 C-33.17305054 168.91672852 -33.17305054 168.91672852 -34.32421875 168.3515625 C-35.08331543 167.99312256 -35.84241211 167.63468262 -36.62451172 167.26538086 C-39 166 -39 166 -41.55126953 164.14282227 C-44.40314509 162.17946945 -46.64098858 160.86948905 -50 160 C-55.04806892 161.25000546 -59.15795429 163.91983066 -63.5 166.6875 C-64.75776036 167.44254156 -66.01839871 168.19280774 -67.28173828 168.93847656 C-69.89448727 170.48627258 -72.49266165 172.0551571 -75.08300781 173.64013672 C-80.66403577 177.03240031 -86.39331866 180.15322732 -92.12133789 183.28823853 C-94.89730403 184.81066253 -97.66342092 186.35066568 -100.4296875 187.890625 C-101.33960449 188.39625977 -102.24952148 188.90189453 -103.18701172 189.42285156 C-106.46877529 191.26282663 -109.733342 193.13333829 -113 195 C-113.33 295.98 -113.66 396.96 -114 501 C-114.99 501.33 -115.98 501.66 -117 502 C-117.33 501.67 -117.66 501.34 -118 501 C-121.04329187 500.87463144 -124.06497373 500.81387557 -127.10961914 500.79467773 C-128.06561508 500.78477814 -129.02161102 500.77487854 -130.00657654 500.76467896 C-133.18274414 500.73296148 -136.35892673 500.70826619 -139.53515625 500.68359375 C-141.73091533 500.66303306 -143.92667036 500.64203684 -146.12242126 500.62062073 C-151.91416158 500.56530861 -157.70593814 500.51593978 -163.4977417 500.46777344 C-169.40282434 500.41762497 -175.30785404 500.36190425 -181.21289062 500.30664062 C-192.8085503 500.19894731 -204.4042547 500.09804194 -216 500 C-216 490.1 -216 480.2 -216 470 C-192.57 470 -169.14 470 -145 470 C-145 372.98 -145 275.96 -145 176 C-118.17924146 161.55805309 -118.17924146 161.55805309 -108.53808594 156.40185547 C-99.70822773 151.67233053 -90.93191613 146.87128998 -82.25 141.875 C-79.72251293 140.42582913 -77.19466469 138.9772921 -74.66650391 137.52929688 C-72.78445557 136.44990201 -70.90407775 135.36759189 -69.02490234 134.28320312 C-66.00470599 132.54751321 -62.97272287 130.83424668 -59.9375 129.125 C-59.00260742 128.58214355 -58.06771484 128.03928711 -57.10449219 127.47998047 C-56.2334082 126.99416504 -55.36232422 126.50834961 -54.46484375 126.0078125 C-53.697771 125.57098145 -52.93069824 125.13415039 -52.14038086 124.68408203 C-50 124 -50 124 -48.09521484 124.67480469 C-47.40379395 125.11211914 -46.71237305 125.54943359 -46 126 C-45.08049561 126.48742676 -44.16099121 126.97485352 -43.21362305 127.47705078 C-42.15699463 128.04407715 -41.10036621 128.61110352 -40.01171875 129.1953125 C-39.43146439 129.50644989 -38.85121002 129.81758728 -38.25337219 130.13815308 C-36.39779805 131.13324144 -34.54262856 132.12908124 -32.6875 133.125 C-25.14065981 137.17437526 -17.59219545 141.22056897 -10.03442383 145.24951172 C-9.35260292 145.61306259 -8.67078201 145.97661346 -7.96829987 146.35118103 C-6.31223718 147.23419059 -4.65612401 148.11710547 -3 149 C-2.99668985 148.24424494 -2.99337971 147.48848988 -2.98996925 146.70983315 C-2.90883489 128.34127648 -2.81677413 109.97280454 -2.71247292 91.6043644 C-2.66229908 82.7216121 -2.61585682 73.83886926 -2.578125 64.95605469 C-2.5452379 57.2159929 -2.50542507 49.47600345 -2.45720994 41.7360214 C-2.43191216 37.63577089 -2.4101407 33.53556857 -2.39665604 29.43526077 C-2.38386526 25.5791645 -2.36184359 21.72323322 -2.33261681 17.86722755 C-2.32351756 16.4490353 -2.31784536 15.03081646 -2.31578636 13.61259651 C-2.31248048 11.68209294 -2.29585736 9.75162563 -2.2784729 7.82119751 C-2.27294214 6.73901255 -2.26741138 5.65682758 -2.26171303 4.54184914 C-2 2 -2 2 0 0 Z " fill="#F7F7F7" transform="translate(289,31)"/>
<path d="M0 0 C5.4228663 2.48462125 9.10486025 5.91675176 11.8046875 11.31640625 C12.52880546 18.2790789 11.41179419 22.96441193 7.0546875 28.56640625 C2.88456906 31.8098317 -1.45754714 32.55728387 -6.6328125 32.25390625 C-12.6181045 31.38424844 -17.09089008 28.55235508 -21.1953125 24.19140625 C-23.08630396 18.75480579 -23.17364732 12.81659523 -21.0703125 7.44140625 C-15.08227053 0.65495868 -9.09728642 -2.83278492 0 0 Z " fill="#1C3463" transform="translate(263.1953125,561.68359375)"/>
<path d="M0 0 C3 3 3 3 3.36914349 4.96211529 C3.36637811 5.71153298 3.36361273 6.46095068 3.36076355 7.233078 C3.36694954 8.52662956 3.36694954 8.52662956 3.3732605 9.84631348 C3.36247467 10.78930298 3.35168884 11.73229248 3.34057617 12.70385742 C3.34101425 13.6991597 3.34145233 14.69446198 3.34190369 15.71992493 C3.33981084 19.01530458 3.31645601 22.31017778 3.29296875 25.60546875 C3.28737457 27.88804344 3.28310363 30.17062172 3.28010559 32.45320129 C3.26864285 38.46534137 3.23916319 44.47726455 3.20599365 50.48931885 C3.17532366 56.62240667 3.16160681 62.75552949 3.14648438 68.88867188 C3.11429502 80.92587663 3.06308127 92.96292029 3 105 C2.34 105 1.68 105 1 105 C0.67 105.99 0.34 106.98 0 108 C0 72.36 0 36.72 0 0 Z " fill="#2E3E69" transform="translate(531,384)"/>
<path d="M0 0 C5.09882455 1.5280389 9.65665659 3.71036856 14.375 6.125 C15.11105469 6.49753906 15.84710938 6.87007812 16.60546875 7.25390625 C18.40550358 8.1656122 20.20301402 9.08229932 22 10 C22 10.66 22 11.32 22 12 C17.71068338 10.67479322 13.85471935 9.00878616 9.875 6.9375 C6.598178 5.23238524 3.63988726 3.70533701 0 3 C0 2.01 0 1.02 0 0 Z " fill="#E7E8EB" transform="translate(337,208)"/>
<path d="M0 0 C0 0.99 0 1.98 0 3 C-1.64453125 4.5703125 -1.64453125 4.5703125 -3.8125 6.125 C-4.52019531 6.64320313 -5.22789062 7.16140625 -5.95703125 7.6953125 C-8 9 -8 9 -11 10 C-10.67 9.01 -10.34 8.02 -10 7 C-9.34 7 -8.68 7 -8 7 C-8 6.34 -8 5.68 -8 5 C-6.20963542 3.99088542 -4.41927083 2.98177083 -2.62890625 1.97265625 C-1.02121854 1.1027487 -1.02121854 1.1027487 0 0 Z " fill="#EBECEE" transform="translate(422,580)"/>
<path d="M0 0 C0 3.77910478 -0.99703962 4.46106101 -3.5 7.1875 C-4.1496875 7.90292969 -4.799375 8.61835937 -5.46875 9.35546875 C-5.9740625 9.89816406 -6.479375 10.44085937 -7 11 C-7.99 10.34 -8.98 9.68 -10 9 C-6.7 6.03 -3.4 3.06 0 0 Z " fill="#0D1B4F" transform="translate(426,578)"/>
<path d="M0 0 C4.05281712 1.22527029 7.44360764 2.69880494 11 5 C9.234375 5.6484375 9.234375 5.6484375 7 6 C5.078125 5.0390625 5.078125 5.0390625 3.25 3.625 C2.63640625 3.16351563 2.0228125 2.70203125 1.390625 2.2265625 C0.93171875 1.82179688 0.4728125 1.41703125 0 1 C0 0.67 0 0.34 0 0 Z " fill="#132354" transform="translate(346,98)"/>
<path d="M0 0 C0.66 0 1.32 0 2 0 C3.60080151 4.00200378 2.29279692 7.04556236 1 11 C0.67 11 0.34 11 0 11 C-1.28571429 3.57142857 -1.28571429 3.57142857 0 0 Z " fill="#EBECED" transform="translate(215,561)"/>
</svg>
